<?xml version="1.0" encoding="utf-8"?>
<svg viewBox="112.75 124.297 249.5 32.484" width="249.5" height="32.484" xmlns="http://www.w3.org/2000/svg">
  <g>
    <title>effective-giving-day-logo</title>
    <path d="M 126.511 138.325 L 126.511 141.535 L 118.641 141.535 L 118.641 146.875 L 127.881 146.875 L 127.881 150.165 L 114.541 150.165 L 114.541 130.255 L 127.851 130.255 L 127.851 133.585 L 118.641 133.585 L 118.641 138.325 L 126.511 138.325 ZM 134.815 150.165 L 130.855 150.165 L 130.855 138.275 L 128.655 138.275 L 128.655 135.375 L 130.855 135.375 L 130.855 134.115 C 130.855 132.455 131.331 131.168 132.285 130.255 C 133.238 129.335 134.571 128.875 136.285 128.875 C 136.831 128.875 137.501 128.968 138.295 129.155 L 138.245 132.215 C 137.918 132.135 137.518 132.095 137.045 132.095 C 135.558 132.095 134.815 132.792 134.815 134.185 L 134.815 135.375 L 137.755 135.375 L 137.755 138.275 L 134.815 138.275 L 134.815 150.165 ZM 144.843 150.165 L 140.883 150.165 L 140.883 138.275 L 138.683 138.275 L 138.683 135.375 L 140.883 135.375 L 140.883 134.115 C 140.883 132.455 141.36 131.168 142.313 130.255 C 143.267 129.335 144.6 128.875 146.313 128.875 C 146.86 128.875 147.53 128.968 148.323 129.155 L 148.273 132.215 C 147.947 132.135 147.547 132.095 147.073 132.095 C 145.587 132.095 144.843 132.792 144.843 134.185 L 144.843 135.375 L 147.783 135.375 L 147.783 138.275 L 144.843 138.275 L 144.843 150.165 ZM 156.314 150.435 C 154.141 150.435 152.374 149.772 151.014 148.445 C 149.647 147.112 148.964 145.338 148.964 143.125 L 148.964 142.745 C 148.964 141.258 149.254 139.928 149.834 138.755 C 150.407 137.582 151.221 136.678 152.274 136.045 C 153.327 135.412 154.527 135.095 155.874 135.095 C 157.894 135.095 159.487 135.735 160.654 137.015 C 161.814 138.288 162.394 140.098 162.394 142.445 L 162.394 144.055 L 152.974 144.055 C 153.101 145.022 153.487 145.795 154.134 146.375 C 154.774 146.962 155.587 147.255 156.574 147.255 C 158.094 147.255 159.281 146.702 160.134 145.595 L 162.084 147.775 C 161.491 148.615 160.687 149.268 159.674 149.735 C 158.661 150.202 157.541 150.435 156.314 150.435 Z M 155.864 138.295 C 155.077 138.295 154.441 138.562 153.954 139.095 C 153.467 139.622 153.154 140.378 153.014 141.365 L 158.514 141.365 L 158.514 141.045 C 158.494 140.172 158.257 139.495 157.804 139.015 C 157.344 138.535 156.697 138.295 155.864 138.295 ZM 170.779 147.255 C 171.506 147.255 172.099 147.055 172.559 146.655 C 173.012 146.248 173.249 145.715 173.269 145.055 L 176.969 145.055 C 176.962 146.055 176.689 146.972 176.149 147.805 C 175.616 148.638 174.879 149.285 173.939 149.745 C 173.006 150.205 171.976 150.435 170.849 150.435 C 168.736 150.435 167.066 149.765 165.839 148.425 C 164.619 147.078 164.009 145.222 164.009 142.855 L 164.009 142.595 C 164.009 140.315 164.616 138.495 165.829 137.135 C 167.042 135.775 168.706 135.095 170.819 135.095 C 172.672 135.095 174.156 135.622 175.269 136.675 C 176.389 137.728 176.956 139.132 176.969 140.885 L 173.269 140.885 C 173.249 140.118 173.012 139.495 172.559 139.015 C 172.099 138.535 171.496 138.295 170.749 138.295 C 169.829 138.295 169.136 138.632 168.669 139.305 C 168.196 139.972 167.959 141.058 167.959 142.565 L 167.959 142.975 C 167.959 144.495 168.192 145.588 168.659 146.255 C 169.126 146.922 169.832 147.255 170.779 147.255 ZM 180.001 131.735 L 183.951 131.735 L 183.951 135.375 L 186.481 135.375 L 186.481 138.275 L 183.951 138.275 L 183.951 145.655 C 183.951 146.202 184.054 146.592 184.261 146.825 C 184.474 147.065 184.878 147.185 185.471 147.185 C 185.904 147.185 186.291 147.152 186.631 147.085 L 186.631 150.085 C 185.858 150.318 185.061 150.435 184.241 150.435 C 181.468 150.435 180.054 149.038 180.001 146.245 L 180.001 138.275 L 177.841 138.275 L 177.841 135.375 L 180.001 135.375 L 180.001 131.735 ZM 192.846 135.375 L 192.846 150.165 L 188.876 150.165 L 188.876 135.375 L 192.846 135.375 Z M 188.646 131.545 C 188.646 130.952 188.843 130.465 189.236 130.085 C 189.636 129.698 190.179 129.505 190.866 129.505 C 191.539 129.505 192.076 129.698 192.476 130.085 C 192.876 130.465 193.076 130.952 193.076 131.545 C 193.076 132.145 192.873 132.638 192.466 133.025 C 192.059 133.405 191.526 133.595 190.866 133.595 C 190.199 133.595 189.663 133.405 189.256 133.025 C 188.849 132.638 188.646 132.145 188.646 131.545 ZM 198.885 135.375 L 201.625 145.335 L 204.375 135.375 L 208.505 135.375 L 203.515 150.165 L 199.745 150.165 L 194.755 135.375 L 198.885 135.375 ZM 216.869 150.435 C 214.695 150.435 212.929 149.772 211.569 148.445 C 210.202 147.112 209.519 145.338 209.519 143.125 L 209.519 142.745 C 209.519 141.258 209.809 139.928 210.389 138.755 C 210.962 137.582 211.775 136.678 212.829 136.045 C 213.882 135.412 215.082 135.095 216.429 135.095 C 218.449 135.095 220.042 135.735 221.209 137.015 C 222.369 138.288 222.949 140.098 222.949 142.445 L 222.949 144.055 L 213.529 144.055 C 213.655 145.022 214.042 145.795 214.689 146.375 C 215.329 146.962 216.142 147.255 217.129 147.255 C 218.649 147.255 219.835 146.702 220.689 145.595 L 222.639 147.775 C 222.045 148.615 221.242 149.268 220.229 149.735 C 219.215 150.202 218.095 150.435 216.869 150.435 Z M 216.419 138.295 C 215.632 138.295 214.995 138.562 214.509 139.095 C 214.022 139.622 213.709 140.378 213.569 141.365 L 219.069 141.365 L 219.069 141.045 C 219.049 140.172 218.812 139.495 218.359 139.015 C 217.899 138.535 217.252 138.295 216.419 138.295 Z" transform="matrix(1, 0, 0, 1, 0, 0)" style="fill: rgb(51, 51, 51); white-space: pre;"/>
    <path d="M 248.162 139.705 L 248.162 147.645 C 247.422 148.532 246.378 149.218 245.032 149.705 C 243.678 150.192 242.182 150.435 240.542 150.435 C 238.822 150.435 237.312 150.062 236.012 149.315 C 234.712 148.562 233.708 147.468 233.002 146.035 C 232.295 144.602 231.935 142.922 231.922 140.995 L 231.922 139.635 C 231.922 137.648 232.255 135.928 232.922 134.475 C 233.588 133.022 234.555 131.912 235.822 131.145 C 237.082 130.372 238.562 129.985 240.262 129.985 C 242.622 129.985 244.465 130.548 245.792 131.675 C 247.125 132.802 247.915 134.438 248.162 136.585 L 244.172 136.585 C 243.985 135.445 243.582 134.612 242.962 134.085 C 242.335 133.558 241.475 133.295 240.382 133.295 C 238.988 133.295 237.925 133.818 237.192 134.865 C 236.465 135.912 236.098 137.472 236.092 139.545 L 236.092 140.815 C 236.092 142.902 236.485 144.478 237.272 145.545 C 238.065 146.612 239.228 147.145 240.762 147.145 C 242.302 147.145 243.402 146.815 244.062 146.155 L 244.062 142.725 L 240.322 142.725 L 240.322 139.705 L 248.162 139.705 ZM 255.382 135.375 L 255.382 150.165 L 251.412 150.165 L 251.412 135.375 L 255.382 135.375 Z M 251.182 131.545 C 251.182 130.952 251.378 130.465 251.772 130.085 C 252.172 129.698 252.715 129.505 253.402 129.505 C 254.075 129.505 254.612 129.698 255.012 130.085 C 255.412 130.465 255.612 130.952 255.612 131.545 C 255.612 132.145 255.408 132.638 255.002 133.025 C 254.595 133.405 254.062 133.595 253.402 133.595 C 252.735 133.595 252.198 133.405 251.792 133.025 C 251.385 132.638 251.182 132.145 251.182 131.545 ZM 261.421 135.375 L 264.161 145.335 L 266.911 135.375 L 271.041 135.375 L 266.051 150.165 L 262.281 150.165 L 257.291 135.375 L 261.421 135.375 ZM 276.942 135.375 L 276.942 150.165 L 272.972 150.165 L 272.972 135.375 L 276.942 135.375 Z M 272.742 131.545 C 272.742 130.952 272.938 130.465 273.332 130.085 C 273.732 129.698 274.275 129.505 274.962 129.505 C 275.635 129.505 276.172 129.698 276.572 130.085 C 276.972 130.465 277.172 130.952 277.172 131.545 C 277.172 132.145 276.968 132.638 276.562 133.025 C 276.155 133.405 275.622 133.595 274.962 133.595 C 274.295 133.595 273.758 133.405 273.352 133.025 C 272.945 132.638 272.742 132.145 272.742 131.545 ZM 280.111 135.375 L 283.821 135.375 L 283.951 137.085 C 285.004 135.758 286.421 135.095 288.201 135.095 C 289.768 135.095 290.934 135.555 291.701 136.475 C 292.468 137.402 292.861 138.778 292.881 140.605 L 292.881 150.165 L 288.921 150.165 L 288.921 140.705 C 288.921 139.865 288.741 139.255 288.381 138.875 C 288.014 138.502 287.408 138.315 286.561 138.315 C 285.448 138.315 284.614 138.788 284.061 139.735 L 284.061 150.165 L 280.111 150.165 L 280.111 135.375 ZM 295.282 142.825 L 295.282 142.655 C 295.282 140.388 295.822 138.562 296.902 137.175 C 297.982 135.788 299.439 135.095 301.272 135.095 C 302.899 135.095 304.162 135.652 305.062 136.765 L 305.222 135.375 L 308.802 135.375 L 308.802 149.675 C 308.802 150.968 308.509 152.092 307.922 153.045 C 307.336 154.005 306.509 154.735 305.442 155.235 C 304.376 155.735 303.129 155.985 301.702 155.985 C 300.616 155.985 299.556 155.768 298.522 155.335 C 297.496 154.908 296.719 154.352 296.192 153.665 L 297.942 151.255 C 298.922 152.362 300.116 152.915 301.522 152.915 C 302.569 152.915 303.386 152.635 303.972 152.075 C 304.552 151.515 304.842 150.718 304.842 149.685 L 304.842 148.895 C 303.929 149.922 302.729 150.435 301.242 150.435 C 299.469 150.435 298.032 149.742 296.932 148.355 C 295.832 146.962 295.282 145.118 295.282 142.825 Z M 299.232 142.945 C 299.232 144.285 299.502 145.335 300.042 146.095 C 300.582 146.855 301.322 147.235 302.262 147.235 C 303.462 147.235 304.322 146.785 304.842 145.885 L 304.842 139.665 C 304.316 138.765 303.462 138.315 302.282 138.315 C 301.336 138.315 300.592 138.702 300.052 139.475 C 299.506 140.248 299.232 141.405 299.232 142.945 Z" transform="matrix(1, 0, 0, 1, 0, 0)" style="fill: rgb(27, 82, 102); white-space: pre;"/>
    <path d="M 318.183 142.655 C 318.183 140.355 318.699 138.518 319.733 137.145 C 320.773 135.778 322.189 135.095 323.983 135.095 C 325.423 135.095 326.613 135.635 327.553 136.715 L 327.553 129.165 L 331.513 129.165 L 331.513 150.165 L 327.943 150.165 L 327.753 148.595 C 326.773 149.822 325.506 150.435 323.953 150.435 C 322.213 150.435 320.816 149.752 319.763 148.385 C 318.709 147.012 318.183 145.102 318.183 142.655 Z M 322.133 142.945 C 322.133 144.332 322.376 145.395 322.863 146.135 C 323.343 146.868 324.043 147.235 324.963 147.235 C 326.189 147.235 327.053 146.722 327.553 145.695 L 327.553 139.855 C 327.059 138.828 326.206 138.315 324.993 138.315 C 323.086 138.315 322.133 139.858 322.133 142.945 ZM 347.13 150.165 L 343.14 150.165 C 342.96 149.812 342.826 149.368 342.74 148.835 C 341.786 149.902 340.543 150.435 339.01 150.435 C 337.563 150.435 336.363 150.018 335.41 149.185 C 334.456 148.345 333.98 147.285 333.98 146.005 C 333.98 144.438 334.56 143.235 335.72 142.395 C 336.886 141.562 338.566 141.138 340.76 141.125 L 342.58 141.125 L 342.58 140.285 C 342.58 139.598 342.403 139.048 342.05 138.635 C 341.703 138.228 341.15 138.025 340.39 138.025 C 339.723 138.025 339.203 138.185 338.83 138.505 C 338.45 138.825 338.26 139.262 338.26 139.815 L 334.31 139.815 C 334.31 138.962 334.573 138.168 335.1 137.435 C 335.626 136.708 336.373 136.138 337.34 135.725 C 338.306 135.305 339.393 135.095 340.6 135.095 C 342.42 135.095 343.866 135.555 344.94 136.475 C 346.006 137.388 346.54 138.675 346.54 140.335 L 346.54 146.745 C 346.553 148.152 346.75 149.215 347.13 149.935 L 347.13 150.165 Z M 339.87 147.415 C 340.456 147.415 340.996 147.285 341.49 147.025 C 341.976 146.765 342.34 146.418 342.58 145.985 L 342.58 143.435 L 341.1 143.435 C 339.126 143.435 338.073 144.118 337.94 145.485 L 337.93 145.725 C 337.93 146.212 338.103 146.615 338.45 146.935 C 338.796 147.255 339.27 147.415 339.87 147.415 ZM 352.137 135.375 L 354.887 144.575 L 357.627 135.375 L 361.857 135.375 L 355.917 152.465 L 355.587 153.245 C 354.7 155.172 353.24 156.135 351.207 156.135 C 350.633 156.135 350.05 156.048 349.457 155.875 L 349.457 152.885 L 350.057 152.895 C 350.81 152.895 351.37 152.782 351.737 152.555 C 352.103 152.328 352.393 151.952 352.607 151.425 L 353.067 150.205 L 347.887 135.375 L 352.137 135.375 Z" transform="matrix(1, 0, 0, 1, 0, 0)" style="fill: rgb(51, 51, 51); white-space: pre;"/>
  </g>
</svg>