<?xml version="1.0" encoding="utf-8"?>
<svg viewBox="0 0 500 500" width="500px" height="500px" xmlns="http://www.w3.org/2000/svg">
  <rect width="500" height="500" style="fill: rgb(255, 255, 255);"/>
  <g transform="matrix(3.520444, 0, 0, 3.520444, -352.269043, -363.471985)" style="">
    <title>effective-giving-day-logo</title>
    <path d="M 119.102 152.338 L 119.102 155.548 L 111.232 155.548 L 111.232 160.888 L 120.472 160.888 L 120.472 164.178 L 107.132 164.178 L 107.132 144.268 L 120.442 144.268 L 120.442 147.598 L 111.232 147.598 L 111.232 152.338 L 119.102 152.338 Z M 127.406 164.178 L 123.446 164.178 L 123.446 152.288 L 121.246 152.288 L 121.246 149.388 L 123.446 149.388 L 123.446 148.128 C 123.446 146.468 123.922 145.181 124.876 144.268 C 125.829 143.348 127.162 142.888 128.876 142.888 C 129.422 142.888 130.092 142.981 130.886 143.168 L 130.836 146.228 C 130.509 146.148 130.109 146.108 129.636 146.108 C 128.149 146.108 127.406 146.805 127.406 148.198 L 127.406 149.388 L 130.346 149.388 L 130.346 152.288 L 127.406 152.288 L 127.406 164.178 Z M 137.434 164.178 L 133.474 164.178 L 133.474 152.288 L 131.274 152.288 L 131.274 149.388 L 133.474 149.388 L 133.474 148.128 C 133.474 146.468 133.951 145.181 134.904 144.268 C 135.858 143.348 137.191 142.888 138.904 142.888 C 139.451 142.888 140.121 142.981 140.914 143.168 L 140.864 146.228 C 140.538 146.148 140.138 146.108 139.664 146.108 C 138.178 146.108 137.434 146.805 137.434 148.198 L 137.434 149.388 L 140.374 149.388 L 140.374 152.288 L 137.434 152.288 L 137.434 164.178 Z M 148.905 164.448 C 146.732 164.448 144.965 163.785 143.605 162.458 C 142.238 161.125 141.555 159.351 141.555 157.138 L 141.555 156.758 C 141.555 155.271 141.845 153.941 142.425 152.768 C 142.998 151.595 143.812 150.691 144.865 150.058 C 145.918 149.425 147.118 149.108 148.465 149.108 C 150.485 149.108 152.078 149.748 153.245 151.028 C 154.405 152.301 154.985 154.111 154.985 156.458 L 154.985 158.068 L 145.565 158.068 C 145.692 159.035 146.078 159.808 146.725 160.388 C 147.365 160.975 148.178 161.268 149.165 161.268 C 150.685 161.268 151.872 160.715 152.725 159.608 L 154.675 161.788 C 154.082 162.628 153.278 163.281 152.265 163.748 C 151.252 164.215 150.132 164.448 148.905 164.448 Z M 148.455 152.308 C 147.668 152.308 147.032 152.575 146.545 153.108 C 146.058 153.635 145.745 154.391 145.605 155.378 L 151.105 155.378 L 151.105 155.058 C 151.085 154.185 150.848 153.508 150.395 153.028 C 149.935 152.548 149.288 152.308 148.455 152.308 Z M 163.37 161.268 C 164.097 161.268 164.69 161.068 165.15 160.668 C 165.603 160.261 165.84 159.728 165.86 159.068 L 169.56 159.068 C 169.553 160.068 169.28 160.985 168.74 161.818 C 168.207 162.651 167.47 163.298 166.53 163.758 C 165.597 164.218 164.567 164.448 163.44 164.448 C 161.327 164.448 159.657 163.778 158.43 162.438 C 157.21 161.091 156.6 159.235 156.6 156.868 L 156.6 156.608 C 156.6 154.328 157.207 152.508 158.42 151.148 C 159.633 149.788 161.297 149.108 163.41 149.108 C 165.263 149.108 166.747 149.635 167.86 150.688 C 168.98 151.741 169.547 153.145 169.56 154.898 L 165.86 154.898 C 165.84 154.131 165.603 153.508 165.15 153.028 C 164.69 152.548 164.087 152.308 163.34 152.308 C 162.42 152.308 161.727 152.645 161.26 153.318 C 160.787 153.985 160.55 155.071 160.55 156.578 L 160.55 156.988 C 160.55 158.508 160.783 159.601 161.25 160.268 C 161.717 160.935 162.423 161.268 163.37 161.268 Z M 172.592 145.748 L 176.542 145.748 L 176.542 149.388 L 179.072 149.388 L 179.072 152.288 L 176.542 152.288 L 176.542 159.668 C 176.542 160.215 176.645 160.605 176.852 160.838 C 177.065 161.078 177.469 161.198 178.062 161.198 C 178.495 161.198 178.882 161.165 179.222 161.098 L 179.222 164.098 C 178.449 164.331 177.652 164.448 176.832 164.448 C 174.059 164.448 172.645 163.051 172.592 160.258 L 172.592 152.288 L 170.432 152.288 L 170.432 149.388 L 172.592 149.388 L 172.592 145.748 Z M 185.437 149.388 L 185.437 164.178 L 181.467 164.178 L 181.467 149.388 L 185.437 149.388 Z M 181.237 145.558 C 181.237 144.965 181.434 144.478 181.827 144.098 C 182.227 143.711 182.77 143.518 183.457 143.518 C 184.13 143.518 184.667 143.711 185.067 144.098 C 185.467 144.478 185.667 144.965 185.667 145.558 C 185.667 146.158 185.464 146.651 185.057 147.038 C 184.65 147.418 184.117 147.608 183.457 147.608 C 182.79 147.608 182.254 147.418 181.847 147.038 C 181.44 146.651 181.237 146.158 181.237 145.558 Z M 191.476 149.388 L 194.216 159.348 L 196.966 149.388 L 201.096 149.388 L 196.106 164.178 L 192.336 164.178 L 187.346 149.388 L 191.476 149.388 Z M 209.46 164.448 C 207.286 164.448 205.52 163.785 204.16 162.458 C 202.793 161.125 202.11 159.351 202.11 157.138 L 202.11 156.758 C 202.11 155.271 202.4 153.941 202.98 152.768 C 203.553 151.595 204.366 150.691 205.42 150.058 C 206.473 149.425 207.673 149.108 209.02 149.108 C 211.04 149.108 212.633 149.748 213.8 151.028 C 214.96 152.301 215.54 154.111 215.54 156.458 L 215.54 158.068 L 206.12 158.068 C 206.246 159.035 206.633 159.808 207.28 160.388 C 207.92 160.975 208.733 161.268 209.72 161.268 C 211.24 161.268 212.426 160.715 213.28 159.608 L 215.23 161.788 C 214.636 162.628 213.833 163.281 212.82 163.748 C 211.806 164.215 210.686 164.448 209.46 164.448 Z M 209.01 152.308 C 208.223 152.308 207.586 152.575 207.1 153.108 C 206.613 153.635 206.3 154.391 206.16 155.378 L 211.66 155.378 L 211.66 155.058 C 211.64 154.185 211.403 153.508 210.95 153.028 C 210.49 152.548 209.843 152.308 209.01 152.308 Z" style="fill: rgb(51, 51, 51); white-space: pre;"/>
    <g transform="matrix(1, 0, 0, 1, -124.790031, 46.574108)">
      <path d="M 248.162 139.705 L 248.162 147.645 C 247.422 148.532 246.378 149.218 245.032 149.705 C 243.678 150.192 242.182 150.435 240.542 150.435 C 238.822 150.435 237.312 150.062 236.012 149.315 C 234.712 148.562 233.708 147.468 233.002 146.035 C 232.295 144.602 231.935 142.922 231.922 140.995 L 231.922 139.635 C 231.922 137.648 232.255 135.928 232.922 134.475 C 233.588 133.022 234.555 131.912 235.822 131.145 C 237.082 130.372 238.562 129.985 240.262 129.985 C 242.622 129.985 244.465 130.548 245.792 131.675 C 247.125 132.802 247.915 134.438 248.162 136.585 L 244.172 136.585 C 243.985 135.445 243.582 134.612 242.962 134.085 C 242.335 133.558 241.475 133.295 240.382 133.295 C 238.988 133.295 237.925 133.818 237.192 134.865 C 236.465 135.912 236.098 137.472 236.092 139.545 L 236.092 140.815 C 236.092 142.902 236.485 144.478 237.272 145.545 C 238.065 146.612 239.228 147.145 240.762 147.145 C 242.302 147.145 243.402 146.815 244.062 146.155 L 244.062 142.725 L 240.322 142.725 L 240.322 139.705 L 248.162 139.705 Z M 255.382 135.375 L 255.382 150.165 L 251.412 150.165 L 251.412 135.375 L 255.382 135.375 Z M 251.182 131.545 C 251.182 130.952 251.378 130.465 251.772 130.085 C 252.172 129.698 252.715 129.505 253.402 129.505 C 254.075 129.505 254.612 129.698 255.012 130.085 C 255.412 130.465 255.612 130.952 255.612 131.545 C 255.612 132.145 255.408 132.638 255.002 133.025 C 254.595 133.405 254.062 133.595 253.402 133.595 C 252.735 133.595 252.198 133.405 251.792 133.025 C 251.385 132.638 251.182 132.145 251.182 131.545 Z M 261.421 135.375 L 264.161 145.335 L 266.911 135.375 L 271.041 135.375 L 266.051 150.165 L 262.281 150.165 L 257.291 135.375 L 261.421 135.375 Z M 276.942 135.375 L 276.942 150.165 L 272.972 150.165 L 272.972 135.375 L 276.942 135.375 Z M 272.742 131.545 C 272.742 130.952 272.938 130.465 273.332 130.085 C 273.732 129.698 274.275 129.505 274.962 129.505 C 275.635 129.505 276.172 129.698 276.572 130.085 C 276.972 130.465 277.172 130.952 277.172 131.545 C 277.172 132.145 276.968 132.638 276.562 133.025 C 276.155 133.405 275.622 133.595 274.962 133.595 C 274.295 133.595 273.758 133.405 273.352 133.025 C 272.945 132.638 272.742 132.145 272.742 131.545 Z M 280.111 135.375 L 283.821 135.375 L 283.951 137.085 C 285.004 135.758 286.421 135.095 288.201 135.095 C 289.768 135.095 290.934 135.555 291.701 136.475 C 292.468 137.402 292.861 138.778 292.881 140.605 L 292.881 150.165 L 288.921 150.165 L 288.921 140.705 C 288.921 139.865 288.741 139.255 288.381 138.875 C 288.014 138.502 287.408 138.315 286.561 138.315 C 285.448 138.315 284.614 138.788 284.061 139.735 L 284.061 150.165 L 280.111 150.165 L 280.111 135.375 Z M 295.282 142.825 L 295.282 142.655 C 295.282 140.388 295.822 138.562 296.902 137.175 C 297.982 135.788 299.439 135.095 301.272 135.095 C 302.899 135.095 304.162 135.652 305.062 136.765 L 305.222 135.375 L 308.802 135.375 L 308.802 149.675 C 308.802 150.968 308.509 152.092 307.922 153.045 C 307.336 154.005 306.509 154.735 305.442 155.235 C 304.376 155.735 303.129 155.985 301.702 155.985 C 300.616 155.985 299.556 155.768 298.522 155.335 C 297.496 154.908 296.719 154.352 296.192 153.665 L 297.942 151.255 C 298.922 152.362 300.116 152.915 301.522 152.915 C 302.569 152.915 303.386 152.635 303.972 152.075 C 304.552 151.515 304.842 150.718 304.842 149.685 L 304.842 148.895 C 303.929 149.922 302.729 150.435 301.242 150.435 C 299.469 150.435 298.032 149.742 296.932 148.355 C 295.832 146.962 295.282 145.118 295.282 142.825 Z M 299.232 142.945 C 299.232 144.285 299.502 145.335 300.042 146.095 C 300.582 146.855 301.322 147.235 302.262 147.235 C 303.462 147.235 304.322 146.785 304.842 145.885 L 304.842 139.665 C 304.316 138.765 303.462 138.315 302.282 138.315 C 301.336 138.315 300.592 138.702 300.052 139.475 C 299.506 140.248 299.232 141.405 299.232 142.945 Z" style="fill: rgb(27, 82, 102); white-space: pre;"/>
      <path d="M 318.183 142.655 C 318.183 140.355 318.699 138.518 319.733 137.145 C 320.773 135.778 322.189 135.095 323.983 135.095 C 325.423 135.095 326.613 135.635 327.553 136.715 L 327.553 129.165 L 331.513 129.165 L 331.513 150.165 L 327.943 150.165 L 327.753 148.595 C 326.773 149.822 325.506 150.435 323.953 150.435 C 322.213 150.435 320.816 149.752 319.763 148.385 C 318.709 147.012 318.183 145.102 318.183 142.655 Z M 322.133 142.945 C 322.133 144.332 322.376 145.395 322.863 146.135 C 323.343 146.868 324.043 147.235 324.963 147.235 C 326.189 147.235 327.053 146.722 327.553 145.695 L 327.553 139.855 C 327.059 138.828 326.206 138.315 324.993 138.315 C 323.086 138.315 322.133 139.858 322.133 142.945 Z M 347.13 150.165 L 343.14 150.165 C 342.96 149.812 342.826 149.368 342.74 148.835 C 341.786 149.902 340.543 150.435 339.01 150.435 C 337.563 150.435 336.363 150.018 335.41 149.185 C 334.456 148.345 333.98 147.285 333.98 146.005 C 333.98 144.438 334.56 143.235 335.72 142.395 C 336.886 141.562 338.566 141.138 340.76 141.125 L 342.58 141.125 L 342.58 140.285 C 342.58 139.598 342.403 139.048 342.05 138.635 C 341.703 138.228 341.15 138.025 340.39 138.025 C 339.723 138.025 339.203 138.185 338.83 138.505 C 338.45 138.825 338.26 139.262 338.26 139.815 L 334.31 139.815 C 334.31 138.962 334.573 138.168 335.1 137.435 C 335.626 136.708 336.373 136.138 337.34 135.725 C 338.306 135.305 339.393 135.095 340.6 135.095 C 342.42 135.095 343.866 135.555 344.94 136.475 C 346.006 137.388 346.54 138.675 346.54 140.335 L 346.54 146.745 C 346.553 148.152 346.75 149.215 347.13 149.935 L 347.13 150.165 Z M 339.87 147.415 C 340.456 147.415 340.996 147.285 341.49 147.025 C 341.976 146.765 342.34 146.418 342.58 145.985 L 342.58 143.435 L 341.1 143.435 C 339.126 143.435 338.073 144.118 337.94 145.485 L 337.93 145.725 C 337.93 146.212 338.103 146.615 338.45 146.935 C 338.796 147.255 339.27 147.415 339.87 147.415 Z M 352.137 135.375 L 354.887 144.575 L 357.627 135.375 L 361.857 135.375 L 355.917 152.465 L 355.587 153.245 C 354.7 155.172 353.24 156.135 351.207 156.135 C 350.633 156.135 350.05 156.048 349.457 155.875 L 349.457 152.885 L 350.057 152.895 C 350.81 152.895 351.37 152.782 351.737 152.555 C 352.103 152.328 352.393 151.952 352.607 151.425 L 353.067 150.205 L 347.887 135.375 L 352.137 135.375 Z" style="fill: rgb(51, 51, 51); white-space: pre;"/>
    </g>
  </g>
</svg>