<svg xmlns="http://www.w3.org/2000/svg" width="152" height="55" viewBox="0 0 152 55">
    <g fill="none">
        <path fill="#CA7053" d="M43.744 54.43l-.082.005-.138.007-.07.003-.09.004-.081.002-.127.002-.082.002h-.084l-.255-.003-.194-.006-.217-.01c-.1-.006-.2-.013-.3-.022l-.16-.014-.136-.014-.04-.005c-.091-.01-.183-.021-.273-.034-.09-.012-.18-.026-.269-.04l-.161-.027-.199-.037-.07-.014-.157-.033-.19-.043-.153-.037-.14-.035-.11-.03-.15-.041-.161-.048-.14-.044-.087-.028-.092-.03-.117-.04-.132-.047-.163-.06-.133-.052-.07-.028-.1-.04-.146-.062-.13-.056-.19-.087-.158-.075-.136-.067-.153-.078-.118-.062-.095-.052-.103-.057-.103-.058-.127-.074-.123-.074-.101-.063-.149-.094-.142-.093-.15-.101-.101-.071-.152-.109-.137-.101-.14-.107-.104-.082-.094-.075-.14-.115-.136-.117-.071-.062-.13-.115-.131-.122-.154-.146-.14-.138-.083-.084-.086-.09-.117-.124-.1-.11-.108-.12-.089-.103-.082-.097-.123-.149-.097-.121-.079-.102-.11-.144-.074-.1-.08-.111-.064-.093-.104-.152-.082-.123-.091-.142-.105-.169-.091-.152-.062-.107-.079-.139-.065-.119-.068-.128-.07-.137-.046-.09-.042-.087-.06-.124-.066-.144-.055-.124-.07-.162-.036-.086-.03-.075-.066-.166-.039-.102-.064-.176-.048-.14-.044-.132-.042-.131-.039-.126-.03-.1-.044-.158-.038-.138-.042-.169-.019-.077-.034-.146-.032-.147c-.024-.114-.046-.228-.066-.343l-.014-.077-.017-.101-.04-.266c-.013-.093-.024-.186-.035-.28l-.008-.077-.008-.076c-.005-.045-.01-.09-.013-.135-.024-.274-.039-.55-.043-.829l-.002-.19V35.11h-7.881c-4.353 0-7.882 3.529-7.882 7.881 0 4.353 3.529 7.882 7.882 7.882 2.028 0 3.931-.767 5.382-2.124l.041-.04c.47 1.14 1.074 2.21 1.794 3.19-2.02 1.639-4.548 2.557-7.217 2.557-6.332 0-11.464-5.133-11.464-11.465 0-6.268 5.03-11.36 11.274-11.462l.19-.002h7.881V17.554C31.526 7.86 39.386 0 49.081 0s17.554 7.86 17.554 17.554c0 9.599-7.703 17.397-17.264 17.553l-.29.002H35.109v7.881c0 4.31 3.458 7.811 7.751 7.881l.131.001.148-.001.121-.004.09-.003.17-.01.075-.005.075-.006.108-.01.077-.008.157-.019.064-.008.17-.025.146-.025.128-.024.09-.019c1.342-.28 2.558-.9 3.554-1.768l.087-.077c1.579-1.416 2.583-3.46 2.62-5.74l.001-.13h3.583c0 3.126-1.251 5.96-3.28 8.027l-.077.079-.14.137-.052.05-.086.081-.121.112-.133.119-.13.113-.118.1-.017.013c-.08.067-.162.133-.244.198l-.026.02c-.136.105-.273.207-.412.306l-.154.107-.143.097-.065.043-.096.062c-.088.056-.176.111-.265.165l-.093.055-.085.05-.166.094-.148.08-.169.09-.148.074-.064.032-.115.055-.14.065-.12.055-.12.052c-.926.4-1.917.682-2.952.825l-.016.002c-.113.016-.227.03-.342.042l-.13.013-.161.014-.183.013zm5.337-50.847c-7.64 0-13.847 6.13-13.97 13.74l-.002.231v13.972H49.08c7.716 0 13.972-6.255 13.972-13.972 0-7.716-6.256-13.971-13.972-13.971zM17.583 0c4.326 0 8.414 1.568 11.599 4.361.72.632 1.384 1.317 1.986 2.048-.708 1.137-1.311 2.346-1.796 3.613-.702-1.095-1.562-2.095-2.558-2.97-2.537-2.223-5.785-3.47-9.231-3.47-7.652 0-13.87 6.131-13.993 13.741l-.002.231H0C0 7.86 7.872 0 17.583 0z"/>
        <g fill="#222120">
            <path d="M6.685 0l3.848 14.482h-2.27L7.357 10.8H3.09l-.904 3.683H0L3.89 0h2.795zM5.31 2.257h-.085l-1.65 6.771h3.385L5.31 2.257zM16.581 14.482L16.581 8.694 20.501 0 18.288 0 15.612 6.357 15.527 6.357 12.914 0 10.533 0 14.41 8.799 14.41 14.482zM27.167 14.859c2.733 0 4.62-1.359 4.62-4.946V0h-2.204v9.998c0 1.931-.805 2.929-2.416 2.929-1.546 0-2.394-1.04-2.394-2.93V0H22.57v9.913c0 3.587 1.864 4.946 4.597 4.946zM37.975 0c4.109 0 6.036 3.031 6.036 7.178 0 4.085-1.889 7.24-5.913 7.303l-.123.001h-3.368V0h3.368zm-.036 1.88h-1.075v10.722h1.075c2.86 0 3.797-2.555 3.815-5.34v-.084c0-2.832-.909-5.248-3.729-5.296l-.086-.001zM51.825 0l3.848 14.482h-2.27l-.905-3.683H48.23l-.904 3.683H45.14L49.03 0h2.795zM50.45 2.257h-.085l-1.65 6.771h3.385l-1.65-6.771z" transform="translate(74.159 20.6)"/>
            <g>
                <path d="M7.899 14.67L7.899 12.755 2.191 12.755 2.191 8.229 6.678 8.229 6.678 6.377 2.191 6.377 2.191 2.104 7.71 2.104 7.71.188 0 .188 0 14.67zM13.295 14.67L13.295 8.861 17.585 8.861 17.585 6.987 13.295 6.987 13.295 2.104 18.62 2.104 18.62.188 11.097.188 11.097 14.67zM29.153 14.67L29.153 12.755 23.444 12.755 23.444 8.229 27.931 8.229 27.931 6.377 23.444 6.377 23.444 2.104 28.963 2.104 28.963.188 21.253.188 21.253 14.67zM36.155 15.047c2.515 0 4.037-1.67 4.417-4.945H38.48c-.338 1.986-.909 3.064-2.346 3.064-1.838 0-2.726-1.923-2.726-5.643 0-3.72.951-5.642 2.726-5.642 1.353 0 2.008 1.056 2.346 3.064h2.092C40.192 1.67 38.818 0 36.155 0c-3.19 0-4.987 2.557-4.987 7.523 0 4.967 1.67 7.524 4.987 7.524zM47.723 14.67L47.723 2.104 51.159 2.104 51.159.188 42.131.188 42.131 2.104 45.566 2.104 45.566 14.67zM55.861 14.67L55.861.188 53.604.188 53.604 14.67zM64.133 14.67L67.898.188 65.698.188 62.8 12.439 62.715 12.439 59.838.188 57.553.188 61.298 14.67zM73.831.188l3.847 14.482h-2.27l-.904-3.683h-4.268l-.904 3.683h-2.186L71.035.188h2.796zm-1.377 2.257h-.084l-1.65 6.771h3.385l-1.65-6.77z" transform="translate(74.159 20.6) translate(0 18.683)"/>
            </g>
        </g>
    </g>
</svg>
