<svg xmlns="http://www.w3.org/2000/svg" xmlns:xlink="http://www.w3.org/1999/xlink" viewBox="0 0 399.86 102.6"><defs><style>.cls-1{fill:none;}.cls-2{clip-path:url(#clip-path);}.cls-3{fill:url(#linear-gradient);}.cls-4{clip-path:url(#clip-path-2);}.cls-5{fill:url(#linear-gradient-2);}.cls-6{fill:#00839b;}.cls-7{clip-path:url(#clip-path-3);}.cls-8{fill:url(#linear-gradient-3);}.cls-9{fill:#1d1d1b;}</style><clipPath id="clip-path"><path d="M18.12 90.6a2.8 2.8 0 0 0 2.8 2.8c13 0 19.47.23 23 5.62a2.8 2.8 0 1 0 4.68-3.07c-5.35-8.15-14.72-8.15-27.7-8.15a2.8 2.8 0 0 0-2.8 2.8" class="cls-1"/></clipPath><linearGradient id="linear-gradient" x1="-363.6" x2="-362.18" y1="-25.6" y2="-25.6" gradientTransform="matrix(0 -4.3 -4.3 0 -75.4 -1449.9)" gradientUnits="userSpaceOnUse"><stop offset="0" stop-color="#00839b"/><stop offset="1" stop-color="#1f5369"/></linearGradient><clipPath id="clip-path-2"><path d="M18.12 79.34a2.8 2.8 0 0 0 2.8 2.8c13.36 0 21.45.6 22.44 3.46-.23.55-1 1.1-3.25 1.53-3.5.67-9.1.66-16.8.66H21a2.8 2.8 0 1 0 0 5.6h4.5c6.92 0 12.04-.1 15.73-.8s6.2-2.3 7.3-4.7a6.3 6.3 0 0 0 .6-2.5 6.47 6.47 0 0 0-.5-2.3c-2.54-6.7-14.3-6.7-27.63-6.7a2.8 2.8 0 0 0-2.8 2.8" class="cls-1"/></clipPath><linearGradient id="linear-gradient-2" x1="-338.75" x2="-337.32" y1="-5.01" y2="-5.01" gradientTransform="matrix(0 -7.4 -7.4 0 -3.5 -2419.7)" xlink:href="#linear-gradient"/><clipPath id="clip-path-3"><path d="M16.6 31.74c-2.25 3.23-2.52 7.66-.76 12.46 1.66 4.52 5.64 9.1 8.57 12.1a2.78 2.78 0 0 0 4-3.9c-3.5-3.6-6.3-7.35-7.3-10.1-1.1-3-1.1-5.67.1-7.37a4.7 4.7 0 0 1 4-1.88 5.15 5.15 0 0 1 3.7 2.5A11.86 11.86 0 0 1 31.7 31c-1.67-1.84-3.9-3.55-6.53-3.55a10.22 10.22 0 0 0-8.56 4.26" class="cls-1"/></clipPath><linearGradient id="linear-gradient-3" x1="-305.2" x2="-303.78" y1="2.16" y2="2.16" gradientTransform="matrix(14.7 0 0 -14.7 4502.6 74)" xlink:href="#linear-gradient"/></defs><g id="Heartbulb"><path d="M18.12 87.8h31.34v12.48H18.12z" class="cls-2 cls-3"/><path d="M18.12 76.54h30.94V93.4H18.12z" class="cls-4 cls-5"/><path d="M31.64 0A31.63 31.63 0 0 0 7.7 52.3a24.37 24.37 0 0 1 4 8.8c1.44 5.35 5.26 8.3 10.76 8.3h5.26c3 0 5.6-.6 15-15.08A47.52 47.52 0 0 0 47.6 43.8c2-6.3.53-10.14-1-12.25a9.88 9.88 0 0 0-8-3.92c-2.47 0-4.96 1.6-6.92 3.4a11.88 11.88 0 0 0-2.87 4.52 9.18 9.18 0 0 0-.5 3 3.72 3.72 0 0 0 3.2 3.86c1.8 0 3.2-2.1 3.2-3.8a10 10 0 0 0-.4-2.8 6.66 6.66 0 0 1 4.5-2.5 4.4 4.4 0 0 1 3.5 1.7c1.1 1.6 1.2 4.1.2 7.3a47.42 47.42 0 0 1-4.14 9 64.75 64.75 0 0 1-8.75 11.5 3.26 3.26 0 0 1-2.7 1.2h-4.3c-2.93 0-4.6-1.23-5.35-4.1-1.9-7.1-5-10.74-5.2-11a26 26 0 1 1 45.75-17 28.4 28.4 0 0 1-6.4 17.8c-.9 1-6.6 7.8-6.6 20.1 0 3.48-7.4 7-23.82 7a2.8 2.8 0 1 0 0 5.6c25.6 0 29.5-7.86 29.5-12.55 0-10.68 4.9-16.07 5.13-16.3l.06-.1a33.74 33.74 0 0 0 7.7-21.55A31.67 31.67 0 0 0 31.66 0" class="cls-6"/><path d="M-.56 39.32l25.3-20.47 21.6 26.7-25.28 20.48z" class="cls-7 cls-8"/></g><path id="Text_outlines" d="M122.25 60.9h-16.37v13.8h15.6l.44-5.77h7.37v13.2H91v-5.8l5.15-1v-34.7l-5.15-1V33.8h38.18V47h-7.44l-.43-5.78h-15.4v12.2h16.4zM134 76.33l3.45-.5 14.7-42h9.94l14.6 42 3.4.5v5.8h-16.5v-5.8l3.3-.6-2.2-6.64h-15.6l-2.1 6.6 3.3.6v5.8H134zM151.5 62h11.1l-5.46-17h-.2zm48.98 16l5.4-.93V38.95l-5.4-.95v-4.2h37.35v11.62h-5.58l-.53-6.47h-19.3V55.6h18.7v5.16h-18.7V77l5.42.93v4.18h-17.36zm67.82-1.17a12.12 12.12 0 0 1-4.36 4.45 12 12 0 0 1-6.16 1.56q-5.84 0-9.13-3.75t-3.28-11.7v-16l-4.12-1v-4.2h10.66v21.2q0 5.7 1.7 7.9t5.3 2.1a10.76 10.76 0 0 0 5.8-1.4 8.83 8.83 0 0 0 3.5-4V51.3l-4.8-.93v-4.2h11.4V77l4.1.93v4.18h-10zM283 78l5.4-.93v-25.7l-5.4-.94v-4.2h11.26l.46 5.34a13 13 0 0 1 4.5-4.43 12 12 0 0 1 6.16-1.58q5.8 0 9 3.4t3.2 10.5V77l5.4.93v4.18h-17.42V78l5.44-1V59.6q0-4.75-1.88-6.74t-5.73-2a9.22 9.22 0 0 0-5 1.36 9.94 9.94 0 0 0-3.5 3.72V77l5.4.93v4.18H283zm68.55-.14a11.6 11.6 0 0 1-4.3 3.72 13.1 13.1 0 0 1-5.9 1.26 12.28 12.28 0 0 1-10.27-4.76q-3.7-4.77-3.7-12.53v-.7q0-8.67 3.7-14a11.9 11.9 0 0 1 10.34-5.3 12.8 12.8 0 0 1 5.63 1.17 11.63 11.63 0 0 1 4.17 3.4V35.5l-5.4-.94v-4.2h12V77l5.4.93v4.18h-11.14zm-17.63-12.32a15.26 15.26 0 0 0 2.22 8.7q2.22 3.3 6.87 3.3a8.66 8.66 0 0 0 5-1.34 10.12 10.12 0 0 0 3.3-3.75V55.78a10.1 10.1 0 0 0-3.3-3.6 8.64 8.64 0 0 0-4.8-1.32 7.45 7.45 0 0 0-6.9 3.88 20.05 20.05 0 0 0-2.2 10.1zm61.72-8.04h-4.9l-1.07-4.3a8.85 8.85 0 0 0-3-1.82 11.58 11.58 0 0 0-4.1-.68 7.54 7.54 0 0 0-5.18 1.53 4.8 4.8 0 0 0-1.7 3.7 4.1 4.1 0 0 0 1.5 3.34q1.4 1.23 6 2.2 6.8 1.45 10.1 4a8 8 0 0 1 3.3 6.7 9.28 9.28 0 0 1-3.9 7.75q-3.9 3-10.1 3a26.27 26.27 0 0 1-7.4-.95 19.52 19.52 0 0 1-5.8-2.74v-8.2h4.9l1.2 4.8a6.82 6.82 0 0 0 3.04 1.5 17 17 0 0 0 4 .46 9.26 9.26 0 0 0 5.44-1.5 4.35 4.35 0 0 0 2-3.7 4.45 4.45 0 0 0-1.66-3.6q-1.6-1.4-6.2-2.4-6.56-1.5-9.88-3.9a7.83 7.83 0 0 1-3.3-6.7 9.38 9.38 0 0 1 3.74-7.5 14.74 14.74 0 0 1 9.7-3.1 23.6 23.6 0 0 1 7.4 1.1 15.3 15.3 0 0 1 5.4 3z" class="cls-9" data-name="Text outlines"/></svg>