<?xml version="1.0" standalone="no"?>
<!DOCTYPE svg PUBLIC "-//W3C//DTD SVG 20010904//EN"
 "http://www.w3.org/TR/2001/REC-SVG-20010904/DTD/svg10.dtd">
<svg version="1.0" xmlns="http://www.w3.org/2000/svg"
 width="1000.000000pt" height="1000.000000pt" viewBox="0 0 1000.000000 1000.000000"
 preserveAspectRatio="xMidYMid meet">
<metadata>
Created by potrace 1.11, written by Peter Selinger 2001-2013
</metadata>
<g transform="translate(0.000000,1000.000000) scale(0.100000,-0.100000)"
fill="#000000" stroke="none">
<path d="M4748 6955 c-2 -2 -46 -5 -98 -8 -113 -7 -212 -22 -294 -43 -34 -9
-65 -17 -71 -18 -26 -5 -91 -29 -99 -37 -6 -5 -17 -9 -25 -9 -26 -1 -219 -100
-276 -142 -222 -165 -353 -320 -468 -558 -46 -96 -121 -290 -111 -290 2 0 1
-8 -5 -17 -9 -18 -49 -199 -57 -263 -2 -19 -6 -51 -9 -70 -24 -184 -25 -758
-1 -876 2 -12 7 -45 11 -75 3 -30 13 -82 21 -117 7 -34 16 -74 19 -90 14 -78
84 -262 152 -397 97 -192 284 -406 453 -516 89 -59 286 -159 311 -159 8 0 19
-4 25 -8 34 -28 279 -83 434 -97 110 -9 446 -3 489 9 9 3 41 8 71 12 75 9 90
11 125 18 17 3 41 8 55 11 70 14 92 19 181 45 251 74 461 188 619 337 l77 72
-1 738 -1 738 -737 3 -738 2 0 -280 c0 -260 1 -280 18 -281 9 0 167 -1 350 -1
l332 -1 1 -41 c1 -73 1 -550 0 -576 -1 -18 -16 -36 -56 -65 -31 -22 -59 -40
-63 -41 -4 0 -23 -8 -42 -16 -56 -26 -145 -49 -238 -63 -99 -15 -350 -13 -427
3 -78 17 -228 73 -245 93 -3 3 -21 15 -41 27 -45 27 -141 124 -180 183 -87
127 -150 298 -179 484 -22 139 -25 194 -25 480 0 288 6 410 26 509 6 28 13 65
16 81 15 88 70 242 115 320 6 11 16 29 22 40 37 69 125 163 206 218 61 43 166
84 257 101 75 14 283 15 348 2 250 -52 409 -192 486 -428 25 -76 24 -72 33
-128 l8 -45 351 2 c194 1 364 2 379 2 20 1 26 5 24 19 -2 9 -7 37 -11 62 -14
82 -16 95 -36 170 -21 77 -64 204 -77 224 -4 6 -7 13 -8 16 -3 19 -57 117 -98
178 -56 85 -186 221 -273 286 -58 43 -224 136 -268 149 -11 3 -53 17 -94 31
-70 24 -227 59 -316 70 -78 10 -342 26 -347 21z"/>
<path d="M336 5062 c1 -1013 4 -1845 7 -1848 7 -8 2496 -8 2504 -1 3 3 5 140
5 304 l0 298 -871 3 -871 2 0 495 0 495 743 0 742 0 0 298 0 297 -740 0 -740
0 -3 441 -2 441 852 1 c469 0 860 1 870 1 15 1 16 29 16 309 l-1 307 -1256 0
-1256 0 1 -1843z"/>
<path d="M6939 6902 l-36 -3 1 -1846 1 -1846 610 1 c542 0 728 4 793 17 10 2
43 6 73 10 30 3 65 10 79 15 14 5 50 14 80 21 154 34 364 128 527 236 122 81
287 236 349 328 14 22 30 42 35 43 5 2 9 8 9 14 0 5 11 24 25 42 14 18 25 36
25 39 0 3 14 26 30 50 16 25 30 47 30 50 0 3 15 38 34 79 52 113 108 290 131
413 31 173 36 245 35 510 0 212 -2 242 -15 337 -3 24 -8 61 -11 83 -3 22 -12
67 -21 100 -8 33 -17 71 -19 85 -8 41 -69 209 -109 295 -82 178 -235 385 -381
515 -73 65 -89 77 -178 135 -241 157 -534 252 -834 271 -98 7 -1197 12 -1263
6z m1306 -630 c290 -46 495 -200 621 -466 42 -90 87 -243 99 -341 4 -27 9 -61
12 -75 10 -45 11 -553 2 -625 -5 -38 -11 -88 -13 -110 -10 -93 -64 -269 -114
-370 -48 -97 -85 -148 -167 -231 -94 -96 -198 -156 -338 -195 -104 -29 -112
-30 -399 -36 -221 -4 -268 -3 -269 8 -1 18 -1 2430 0 2446 1 15 465 11 566 -5z"/>
</g>
</svg>
